<svg width="75" height="75" viewBox="0 0 75 75" fill="none" xmlns="http://www.w3.org/2000/svg">
<g clip-path="url(#clip0)">
<path d="M72.6562 54.3333H2.34375C1.70898 54.3333 1.15967 54.0942 0.695801 53.6159C0.231934 53.1376 0 52.5712 0 51.9167C0 42.4514 2.84424 34.3832 8.53271 27.7122C14.2212 21.0412 21.5332 17.026 30.4688 15.6667C31.1035 15.6667 31.6528 15.4275 32.1167 14.9492C32.5806 14.4709 32.8125 13.9045 32.8125 13.25C32.8125 12.5955 32.5806 12.0291 32.1167 11.5508C31.6528 11.0725 31.1035 10.8333 30.4688 10.8333C29.834 10.8333 29.2847 10.5942 28.8208 10.1159C28.3569 9.63759 28.125 9.07118 28.125 8.41667C28.125 7.76215 28.3569 7.19575 28.8208 6.71745C29.2847 6.23915 29.834 6 30.4688 6H44.5312C45.166 6 45.7153 6.23915 46.1792 6.71745C46.6431 7.19575 46.875 7.76215 46.875 8.41667C46.875 9.07118 46.6431 9.63759 46.1792 10.1159C45.7153 10.5942 45.166 10.8333 44.5312 10.8333C43.8965 10.8333 43.3472 11.0725 42.8833 11.5508C42.4194 12.0291 42.1875 12.5955 42.1875 13.25C42.1875 13.9045 42.4194 14.4709 42.8833 14.9492C43.3472 15.4275 43.8965 15.6667 44.5312 15.6667C53.4668 17.026 60.7788 21.0412 66.4673 27.7122C72.1558 34.3832 75 42.4514 75 51.9167C75 52.5712 74.7681 53.1376 74.3042 53.6159C73.8403 54.0942 73.291 54.3333 72.6562 54.3333ZM2.34375 59.1667H72.6562C73.291 59.1667 73.8403 59.4058 74.3042 59.8841C74.7681 60.3624 75 60.9288 75 61.5833C75 62.2378 74.7681 62.8043 74.3042 63.2826C73.8403 63.7609 73.291 64 72.6562 64H2.34375C1.70898 64 1.15967 63.7609 0.695801 63.2826C0.231934 62.8043 0 62.2378 0 61.5833C0 60.9288 0.231934 60.3624 0.695801 59.8841C1.15967 59.4058 1.70898 59.1667 2.34375 59.1667Z" fill="#015196"/>
</g>
<defs>
<clipPath id="clip0">
<rect width="75" height="75" fill="white"/>
</clipPath>
</defs>
</svg>
