<svg width="75" height="75" viewBox="0 0 75 75" fill="none" xmlns="http://www.w3.org/2000/svg">
<path d="M60.3662 51.2617C58.5329 49.427 56.3908 47.9295 54.038 46.8379C57.3559 44.1499 59.4726 40.0483 59.4726 35.4487C59.4726 27.3335 52.705 20.6758 44.5898 20.8003C36.5991 20.9248 30.1611 27.436 30.1611 35.4487C30.1611 40.0483 32.2851 44.1499 35.5956 46.8379C33.2424 47.9287 31.1002 49.4263 29.2675 51.2617C25.2685 55.2681 22.998 60.5562 22.8515 66.1958C22.8495 66.274 22.8633 66.3517 22.8918 66.4245C22.9204 66.4973 22.9632 66.5637 23.0179 66.6196C23.0725 66.6756 23.1377 66.7201 23.2098 66.7504C23.2818 66.7808 23.3592 66.7964 23.4374 66.7964H27.539C27.8539 66.7964 28.1176 66.5474 28.1249 66.2324C28.2641 61.9844 29.9853 58.0073 33.0102 54.9898C34.5581 53.4336 36.3993 52.2 38.4271 51.3601C40.455 50.5203 42.6293 50.0911 44.8242 50.0972C49.2846 50.0972 53.4814 51.833 56.6381 54.9898C59.6557 58.0073 61.3769 61.9844 61.5234 66.2324C61.5307 66.5474 61.7944 66.7964 62.1093 66.7964H66.2109C66.2891 66.7964 66.3665 66.7808 66.4385 66.7504C66.5106 66.7201 66.5759 66.6756 66.6305 66.6196C66.6851 66.5637 66.7279 66.4973 66.7565 66.4245C66.7851 66.3517 66.7988 66.274 66.7968 66.1958C66.6503 60.5562 64.3798 55.2681 60.3662 51.2617ZM44.8242 44.8237C42.3193 44.8237 39.9609 43.8496 38.1957 42.0772C37.3099 41.1983 36.6102 40.15 36.1383 38.9948C35.6664 37.8396 35.432 36.6013 35.4492 35.3535C35.4711 32.9512 36.4306 30.6294 38.1079 28.9082C39.8657 27.1065 42.2167 26.103 44.7289 26.0737C47.2119 26.0518 49.6215 27.0186 51.394 28.7544C53.2104 30.5342 54.2065 32.9146 54.2065 35.4487C54.2065 37.9536 53.2324 40.3047 51.4599 42.0772C50.5903 42.9509 49.5561 43.6435 48.4171 44.115C47.2781 44.5864 46.0569 44.8273 44.8242 44.8237ZM26.477 37.3823C26.4111 36.7451 26.3745 36.1006 26.3745 35.4487C26.3745 34.2842 26.4843 33.1489 26.6894 32.043C26.7407 31.7793 26.6015 31.5083 26.3598 31.3984C25.3637 30.9517 24.4482 30.3364 23.6572 29.5601C22.7251 28.6563 21.9916 27.5682 21.5036 26.3651C21.0156 25.1621 20.7837 23.8705 20.8227 22.5728C20.8886 20.2217 21.8334 17.9878 23.4814 16.3032C25.2905 14.4502 27.7221 13.4395 30.3076 13.4688C32.644 13.4907 34.8998 14.3916 36.6064 15.9883C37.185 16.5303 37.683 17.1309 38.1005 17.7754C38.247 18.0025 38.5327 18.0977 38.7817 18.0098C40.0707 17.563 41.433 17.2481 42.832 17.1016C43.2421 17.0576 43.4765 16.6182 43.2934 16.252C40.913 11.5425 36.0497 8.29054 30.4247 8.20265C22.3022 8.07813 15.5346 14.7358 15.5346 22.8438C15.5346 27.4434 17.6513 31.5449 20.9692 34.2329C18.6401 35.3096 16.4941 36.7964 14.6337 38.6567C10.6201 42.6631 8.34955 47.9512 8.20306 53.5982C8.20111 53.6763 8.21482 53.7541 8.24339 53.8269C8.27196 53.8997 8.31481 53.966 8.36941 54.022C8.42402 54.0779 8.48928 54.1224 8.56134 54.1528C8.6334 54.1831 8.71081 54.1988 8.789 54.1987H12.8979C13.2128 54.1987 13.4765 53.9497 13.4838 53.6348C13.623 49.3867 15.3442 45.4097 18.3691 42.3921C20.5224 40.2388 23.1591 38.7446 26.0375 38.0195C26.3232 37.9463 26.5136 37.6753 26.477 37.3823Z" fill="#015196"/>
</svg>
