<svg width="75" height="75" viewBox="0 0 75 75" fill="none" xmlns="http://www.w3.org/2000/svg">
<g clip-path="url(#clip0)">
<path d="M16.0348 35.7493L35.7486 16.0383L29.2857 9.57544L20.2506 18.6106C20.1428 18.7186 20.0149 18.8042 19.874 18.8626C19.7331 18.9211 19.5821 18.9511 19.4295 18.9511C19.277 18.9511 19.126 18.9211 18.9851 18.8626C18.8442 18.8042 18.7162 18.7186 18.6085 18.6106L16.9664 16.9685C16.5123 16.5144 16.5123 15.7791 16.9664 15.3264L26.0016 6.29126L21.0738 1.36206C19.2589 -0.452881 16.3175 -0.452881 14.5025 1.36206L1.36143 14.5032C-0.452048 16.3181 -0.453513 19.2595 1.36143 21.0745L16.0348 35.7493ZM72.9396 18.6399C75.6876 15.8918 75.6861 11.4373 72.9396 8.68921L66.3111 2.06079C63.5631 -0.687256 59.107 -0.687256 56.3575 2.06079L49.6163 8.80054L66.1983 25.3826L72.9396 18.6399ZM46.3014 12.1169L2.79551 55.6169L0.0474635 71.3552C-0.323142 73.4778 1.52549 75.3264 3.64951 74.9529L19.3893 72.1931L62.8834 28.6975L46.3014 12.1169ZM73.6397 53.928L68.712 49.0002L59.6769 58.0354C59.2228 58.4895 58.4874 58.4895 58.0348 58.0354L56.3927 56.3933C55.94 55.9392 55.94 55.2039 56.3927 54.7512L65.4278 45.7161L58.962 39.2502L39.2481 58.9612L53.9273 73.6389C55.7423 75.4539 58.6837 75.4539 60.4986 73.6389L73.6397 60.4993C75.4547 58.6843 75.4547 55.7429 73.6397 53.928Z" fill="#015196"/>
</g>
<defs>
<clipPath id="clip0">
<rect width="75" height="75" fill="white"/>
</clipPath>
</defs>
</svg>
