<svg width="75" height="75" viewBox="0 0 75 75" fill="none" xmlns="http://www.w3.org/2000/svg">
<path d="M63.4937 12.4438L38.606 3.9624C38.3057 3.85986 37.9028 3.80859 37.5 3.80859C37.0972 3.80859 36.6943 3.85986 36.394 3.9624L11.5063 12.4438C10.8984 12.6489 10.4004 13.3521 10.4004 13.9966V49.3286C10.4004 49.9731 10.8179 50.8228 11.3232 51.2256L36.5698 70.8984C36.8262 71.0962 37.1558 71.1987 37.4927 71.1987C37.8296 71.1987 38.1665 71.0962 38.4155 70.8984L63.6621 51.2256C64.1675 50.8301 64.585 49.9805 64.585 49.3286V13.9966C64.5996 13.3521 64.1016 12.6562 63.4937 12.4438ZM50.8667 24.9536L35.2954 46.3916C35.1859 46.5414 35.0427 46.6633 34.8772 46.7473C34.7118 46.8314 34.5288 46.8752 34.3433 46.8752C34.1577 46.8752 33.9748 46.8314 33.8093 46.7473C33.6439 46.6633 33.5006 46.5414 33.3911 46.3916L24.1333 33.6475C23.855 33.2593 24.1333 32.7173 24.6094 32.7173H28.6523C29.0259 32.7173 29.3848 32.9004 29.6045 33.2007L34.3433 39.7192L45.3955 24.4995C45.6152 24.1992 45.9668 24.0161 46.3477 24.0161H50.3906C50.8667 24.0234 51.145 24.5654 50.8667 24.9536Z" fill="#015196"/>
</svg>
