<svg width="75" height="75" viewBox="0 0 75 75" fill="none" xmlns="http://www.w3.org/2000/svg">
<path d="M20.9473 47.5962H53.9551L57.4707 13.8822C57.9264 9.46514 57.2591 6.04718 55.4688 3.62831C53.6784 1.20944 50.8138 0 46.875 0H28.125C24.1862 0 21.3053 1.20944 19.4824 3.62831C17.6595 6.04718 16.9759 9.46514 17.4316 13.8822L20.9473 47.5962ZM50 60.5769H25V71.9351C25 72.7764 24.6989 73.4976 24.0967 74.0986C23.4945 74.6995 22.7539 75 21.875 75H15.625C14.7461 75 14.0055 74.7296 13.4033 74.1887C12.8011 73.6478 12.5 72.9567 12.5 72.1154L12.4512 59.9008C11.3118 59.4501 10.3109 58.8717 9.44824 58.1656C8.58561 57.4594 7.88574 56.5956 7.34863 55.5739C6.81152 54.5523 6.37207 53.5382 6.03027 52.5316C5.68848 51.5249 5.4362 50.2779 5.27344 48.7906C5.11068 47.3032 5.00488 45.9585 4.95605 44.7566C4.90723 43.5547 4.88281 42.0523 4.88281 40.2494C3.45052 39.979 2.27865 39.3404 1.36719 38.3338C0.455729 37.3272 0 36.0877 0 34.6154C0 32.9627 0.626628 31.588 1.87988 30.4913C3.13314 29.3945 5.07812 28.8462 7.71484 28.8462C8.85417 28.8462 9.82259 28.9964 10.6201 29.2969C11.4176 29.5974 12.0768 30.0706 12.5977 30.7166C13.1185 31.3627 13.5091 31.9336 13.7695 32.4294C14.0299 32.9252 14.3229 33.6238 14.6484 34.5252L16.5527 49.4441C16.8132 50.6761 17.0736 51.3822 17.334 51.5625C17.6595 51.8029 18.3757 51.9231 19.4824 51.9231H55.4199C56.6243 51.9231 57.3486 51.8029 57.5928 51.5625C57.8369 51.3221 58.0892 50.616 58.3496 49.4441L60.2539 34.5252C60.5794 33.6238 60.8724 32.9252 61.1328 32.4294C61.3932 31.9336 61.7839 31.3627 62.3047 30.7166C62.8255 30.0706 63.4847 29.5974 64.2822 29.2969C65.0798 28.9964 66.0482 28.8462 67.1875 28.8462C69.8242 28.8462 71.7855 29.3945 73.0713 30.4913C74.3571 31.588 75 32.9627 75 34.6154C75 36.0577 74.5361 37.2897 73.6084 38.3113C72.6807 39.3329 71.4844 39.979 70.0195 40.2494C70.0195 42.0823 69.9951 43.5922 69.9463 44.7791C69.8975 45.966 69.7917 47.3182 69.6289 48.8356C69.4661 50.3531 69.222 51.6226 68.8965 52.6442C68.571 53.6659 68.1396 54.695 67.6025 55.7317C67.0654 56.7683 66.3656 57.6397 65.5029 58.3459C64.6403 59.052 63.6393 59.6304 62.5 60.0811V72.1154C62.5 72.9567 62.1989 73.6478 61.5967 74.1887C60.9945 74.7296 60.2539 75 59.375 75H53.125C52.2461 75 51.5055 74.7296 50.9033 74.1887C50.3011 73.6478 50 72.9567 50 72.1154V60.5769Z" fill="#015196"/>
</svg>
