<svg width="75" height="75" viewBox="0 0 75 75" fill="none" xmlns="http://www.w3.org/2000/svg">
<path d="M65.625 56.25H46.3125C45.8459 54.9394 45.0934 53.749 44.1097 52.7653C43.126 51.7816 41.9356 51.0291 40.625 50.5625V40.625H62.5C63.3288 40.625 64.1237 40.2958 64.7097 39.7097C65.2958 39.1237 65.625 38.3288 65.625 37.5C65.625 36.6712 65.2958 35.8763 64.7097 35.2903C64.1237 34.7042 63.3288 34.375 62.5 34.375H59.375V15.625C59.375 13.1386 58.3873 10.754 56.6291 8.99587C54.871 7.23772 52.4864 6.25 50 6.25H25C22.5136 6.25 20.129 7.23772 18.3709 8.99587C16.6127 10.754 15.625 13.1386 15.625 15.625V34.375H12.5C11.6712 34.375 10.8763 34.7042 10.2903 35.2903C9.70424 35.8763 9.375 36.6712 9.375 37.5C9.375 38.3288 9.70424 39.1237 10.2903 39.7097C10.8763 40.2958 11.6712 40.625 12.5 40.625H34.375V50.5625C33.0644 51.0291 31.874 51.7816 30.8903 52.7653C29.9066 53.749 29.1541 54.9394 28.6875 56.25H9.375C8.5462 56.25 7.75134 56.5792 7.16529 57.1653C6.57924 57.7513 6.25 58.5462 6.25 59.375C6.25 60.2038 6.57924 60.9987 7.16529 61.5847C7.75134 62.1708 8.5462 62.5 9.375 62.5H28.6875C29.3444 64.3099 30.5426 65.8736 32.1193 66.9786C33.6959 68.0837 35.5746 68.6765 37.5 68.6765C39.4254 68.6765 41.3041 68.0837 42.8807 66.9786C44.4574 65.8736 45.6556 64.3099 46.3125 62.5H65.625C66.4538 62.5 67.2487 62.1708 67.8347 61.5847C68.4208 60.9987 68.75 60.2038 68.75 59.375C68.75 58.5462 68.4208 57.7513 67.8347 57.1653C67.2487 56.5792 66.4538 56.25 65.625 56.25ZM21.875 34.375V15.625C21.875 14.7962 22.2042 14.0013 22.7903 13.4153C23.3763 12.8292 24.1712 12.5 25 12.5H50C50.8288 12.5 51.6237 12.8292 52.2097 13.4153C52.7958 14.0013 53.125 14.7962 53.125 15.625V34.375H21.875ZM37.5 62.5C36.8819 62.5 36.2777 62.3167 35.7638 61.9734C35.2499 61.63 34.8494 61.1419 34.6129 60.5709C34.3764 59.9999 34.3145 59.3715 34.435 58.7653C34.5556 58.1592 34.8533 57.6023 35.2903 57.1653C35.7273 56.7283 36.2842 56.4306 36.8903 56.3101C37.4965 56.1895 38.1249 56.2514 38.6959 56.4879C39.2669 56.7244 39.755 57.1249 40.0983 57.6389C40.4417 58.1528 40.625 58.7569 40.625 59.375C40.625 60.2038 40.2958 60.9987 39.7097 61.5847C39.1237 62.1708 38.3288 62.5 37.5 62.5Z" fill="#015196"/>
</svg>
